PathFileType	4	(X/Y/Z)	D:\TRACE\spot_10-12-23\spot_arm_motion_2_4-platform.trc
DataRate	CameraRate	NumFrames	NumMarkers	Units	OrigDataRate	OrigDataStartFrame	OrigNumFrames
100.00	100.00	      72	5	mm	100.00	1751	      7000
Frame#	Time	Left_Front			Right_Front			Left_Aft			Right_Aft			Post			
		X1	Y1	Z1	X2	Y2	Z2	X3	Y3	Z3	X4	Y4	Z4	X5	Y5	Z5	

1751	17.500	-828.92371	-47.64273	-652.25653	743.34259	-42.60041	-645.24152	-746.44415	41.08923	482.28522	670.26508	51.39150	568.15735	-45.75240	662.99957	-1027.81897	
1752	17.510	-828.83948	-48.06994	-652.35852	743.65649	-43.26558	-645.35059	-745.88666	41.60413	482.16043	670.63849	51.99840	567.93359	-42.98772	660.63959	-1029.67944	
1753	17.520	-828.30994	-48.98331	-652.46997	744.00189	-43.77057	-645.46564	-745.70270	41.87060	482.01663	671.90729	53.22380	567.60065	-45.22855	660.62524	-1029.78442	
1754	17.530	-827.80817	-49.65857	-652.58948	744.44159	-44.38425	-645.67572	-745.30316	42.30380	481.77319	672.33081	53.63339	567.48846	-45.09795	659.90454	-1030.77332	
1755	17.540	-827.45441	-50.14590	-652.71887	745.16791	-45.25183	-645.65167	-744.67328	42.72711	481.77881	672.77380	54.26958	567.26660	-44.36513	658.53796	-1031.64233	
1756	17.550	-827.06274	-50.72033	-652.77954	745.57135	-45.84679	-645.86310	-744.22595	43.03927	481.66748	673.10229	54.81830	567.16925	-43.86544	657.72705	-1032.38245	
1757	17.560	-826.37305	-51.52221	-652.86047	745.93188	-46.29680	-645.94757	-743.91418	43.37156	481.46609	673.58057	55.31006	566.96228	-43.20483	656.83984	-1033.41992	
1758	17.570	-825.89594	-51.94839	-653.08752	746.46045	-46.83984	-646.08759	-743.27075	43.84892	481.47772	673.97681	55.69184	566.81665	-40.70586	654.97839	-1035.01892	
1759	17.580	-825.59833	-52.17308	-653.05676	746.74835	-47.37352	-646.25391	-742.85065	44.23905	480.99924	674.49567	55.99273	566.66309	-42.23362	655.36700	-1034.72278	
1760	17.590	-825.09686	-52.62545	-653.14172	747.20410	-47.92191	-646.36127	-742.37573	44.54841	480.74603	674.91705	56.32138	566.53802	-41.86226	654.41199	-1035.49939	
1761	17.600	-824.46008	-53.30912	-653.30005	747.56763	-48.25918	-646.32574	-741.89551	44.89329	480.53647	675.40778	56.65910	566.30829	-41.31908	653.67780	-1036.30603	
1762	17.610	-823.57007	-54.00568	-653.46924	748.43286	-48.87230	-646.29663	-741.33771	45.14241	480.41608	675.04449	56.84937	566.44806	-40.71812	653.05774	-1037.03137	
1763	17.620	-823.28784	-54.12378	-653.50745	749.15741	-49.25851	-646.20166	-740.89301	45.22775	480.32138	675.91113	57.29494	566.30865	-40.15601	652.33551	-1037.45801	
1764	17.630	-822.86151	-54.32791	-653.48981	749.60785	-49.50006	-646.31506	-740.19672	45.53463	480.28961	677.29877	57.69127	565.99182	-39.40504	651.93243	-1038.07532	
1765	17.640	-822.26868	-54.59611	-653.41614	750.10974	-49.78076	-646.39423	-739.58160	45.68668	480.30679	677.52905	57.76077	565.86359	-38.82946	651.57220	-1038.56970	
1766	17.650	-821.56219	-54.95559	-653.36737	750.75415	-50.10162	-646.40790	-739.05774	45.80076	480.20526	678.33704	57.98442	565.62512	-38.33741	651.10767	-1039.00330	
1767	17.660	-821.02289	-55.20892	-653.31696	751.43439	-50.38815	-646.41443	-738.35468	45.99812	480.07196	678.94116	58.09279	565.63934	-37.38074	650.50409	-1039.75427	
1768	17.670	-820.56213	-55.45530	-653.30804	751.98303	-50.55584	-646.54083	-737.68591	46.12571	480.03363	679.89252	58.38029	565.66486	-37.03141	650.28589	-1040.05212	
1769	17.680	-819.53540	-56.01906	-653.45605	752.47009	-50.62709	-646.62488	-737.01807	46.16749	479.92325	680.28656	58.36935	565.64215	-36.52801	650.03754	-1040.41528	
1770	17.690	-818.73615	-56.06272	-653.56421	753.28497	-50.62925	-646.66138	-736.37207	46.29917	479.94742	680.87500	58.42858	565.52435	-35.71873	649.84930	-1040.82336	
1771	17.700	-818.23468	-56.03080	-653.39453	754.22711	-50.54888	-646.56573	-735.50586	46.41490	479.93658	681.65546	58.59682	565.39398	-35.19280	649.82117	-1041.05005	
1772	17.710	-817.56622	-55.92014	-653.51599	754.86707	-50.44200	-646.50244	-734.93219	46.45591	479.93561	682.59167	58.69420	565.42255	-34.49086	649.67944	-1041.19678	
1773	17.720	-816.77179	-55.94969	-653.50043	755.61572	-50.55257	-646.52454	-734.34344	46.51223	479.86765	683.00098	58.69883	565.45703	-33.51549	649.56995	-1041.16943	
1774	17.730	-816.21149	-55.82827	-653.55481	756.34772	-50.67210	-646.76538	-733.58075	46.54696	479.94269	683.77667	58.66125	565.46313	-32.76912	649.63507	-1041.11975	
1775	17.740	-815.44189	-55.69670	-653.44116	757.11328	-50.72734	-646.64246	-732.70270	46.61563	479.93066	684.69617	58.58691	565.56323	-31.96301	649.74768	-1041.13745	
1776	17.750	-814.77441	-55.54849	-653.31525	757.74585	-50.65715	-646.48285	-732.08514	46.50398	479.96570	685.54913	58.55825	565.48810	-31.11477	649.79041	-1041.10535	
1777	17.760	-813.91949	-55.32083	-653.50555	758.65613	-50.50472	-646.64020	-731.16132	46.30959	480.10248	686.16602	58.51580	565.58356	-30.44458	649.88403	-1040.94519	
1778	17.770	-812.94714	-55.41302	-653.63824	759.35107	-50.27780	-646.74829	-730.25604	46.09480	480.02737	687.05658	58.36936	565.53033	-29.57764	650.21210	-1040.72473	
1779	17.780	-812.15295	-55.26392	-653.53644	760.20679	-49.98528	-646.49481	-729.55145	45.96999	480.09802	687.86127	58.19812	565.60779	-28.87927	650.50989	-1040.47998	
1780	17.790	-811.36584	-54.89449	-653.39392	761.22070	-49.80897	-646.37006	-728.62347	45.85958	480.28384	688.66815	58.04163	565.76184	-28.15109	650.98438	-1040.10620	
1781	17.800	-810.58838	-54.47674	-653.33789	761.82056	-49.62158	-646.32788	-727.89655	45.71459	480.29211	689.51691	57.81926	565.87720	-27.44971	651.50580	-1039.66077	
1782	17.810	-809.76520	-54.13705	-653.15948	762.79211	-49.08410	-646.44586	-727.04120	45.48000	480.43558	690.38489	57.48862	565.89044	-26.17864	652.10876	-1039.26025	
1783	17.820	-808.90509	-53.52271	-653.15204	763.65796	-48.60182	-646.41266	-726.08893	45.25330	480.57175	691.42377	57.25079	566.03815	-25.52535	652.56964	-1038.91162	
1784	17.830	-807.87952	-53.23209	-653.39655	764.46167	-48.15643	-646.19275	-725.33978	44.84354	480.61087	692.23035	56.86501	566.14655	-24.64900	653.44855	-1038.28406	
1785	17.840	-807.05426	-52.87585	-653.14600	765.29193	-47.89317	-646.41272	-724.39539	44.45107	480.78772	692.91724	56.46081	566.28412	-23.60168	654.18365	-1037.63269	
1786	17.850	-805.89844	-52.55214	-653.06946	766.25903	-47.25548	-646.33435	-723.45508	44.31346	480.87326	694.07819	56.13029	566.51154	-22.82157	654.78204	-1037.10754	
1787	17.860	-805.03516	-52.05758	-652.92389	767.37891	-46.70419	-645.93134	-722.53448	43.90421	481.05878	695.05121	55.81468	566.79028	-22.00414	655.79364	-1036.34290	
1788	17.870	-804.19922	-51.42181	-652.77960	768.17432	-46.22688	-645.89056	-721.45398	43.48058	481.11331	695.78137	55.30345	566.92096	-20.43925	656.65796	-1035.74365	
1789	17.880	-803.39398	-50.56503	-652.84534	769.21832	-45.65488	-645.88562	-720.44067	43.11643	481.21436	696.95068	54.99107	567.05945	-19.60233	657.38300	-1034.85510	
1790	17.890	-802.21112	-50.21398	-652.65314	770.14258	-45.18536	-645.82800	-719.59271	42.77782	481.41043	697.84198	54.52328	567.25568	-18.72083	658.42889	-1034.14014	
1791	17.900	-801.07642	-49.64671	-652.66211	771.31158	-44.36050	-645.51929	-718.60638	42.30965	481.72171	698.82001	54.06691	567.38745	-17.94169	659.27875	-1033.19983	
1792	17.910	-799.99536	-49.07764	-652.66254	772.08179	-43.78447	-645.74347	-717.48517	41.86748	482.14899	700.02740	53.57538	567.62463	-16.71313	660.54736	-1032.30750	
1793	17.920	-799.17157	-48.26157	-652.44238	773.23938	-43.03602	-645.37860	-716.58234	41.48042	482.31195	700.92346	52.94835	567.84662	-15.90954	661.50970	-1031.30322	
1794	17.930	-798.14014	-47.73378	-652.10425	774.48126	-42.39252	-645.25446	-715.64606	41.09906	482.37891	701.64410	52.35045	567.92499	-14.99093	662.96460	-1030.19421	
1795	17.940	-796.91113	-46.86344	-652.18872	775.18292	-41.62890	-644.97705	-714.49768	40.57477	482.63776	702.83710	51.60904	568.18658	-14.19163	664.01862	-1029.33386	
1796	17.950	-795.76227	-46.20400	-652.22870	776.13550	-40.65903	-645.39447	-713.59601	39.97831	482.86807	703.87952	50.93923	568.41577	-12.93315	665.24225	-1028.25916	
1797	17.960	-795.04828	-45.03797	-652.01141	777.19250	-39.87347	-644.91364	-712.62891	39.41700	482.98938	705.01172	50.41096	568.78790	-11.93078	666.84497	-1027.31152	
1798	17.970	-794.05548	-44.11238	-651.80542	778.39648	-38.85675	-645.00580	-711.38593	38.66207	483.23288	705.82825	49.73711	569.05481	-10.88469	668.09033	-1025.82458	
1799	17.980	-792.97552	-43.17783	-651.56879	779.33929	-38.08436	-644.54596	-710.40057	38.15417	483.55286	707.08325	48.99042	569.37073	-10.30622	669.65417	-1024.83484	
1800	17.990	-791.84662	-42.18555	-651.38556	780.79413	-36.93528	-644.40460	-709.22583	37.60478	483.71744	708.25195	48.26903	569.67712	-8.85396	671.00623	-1023.54083	
1801	18.000	-790.62384	-41.43969	-651.28827	781.38733	-35.98887	-644.31787	-708.14185	36.88684	484.09418	709.09534	47.42022	569.77618	-7.60529	672.35101	-1022.38000	
1802	18.010	-789.55017	-40.47584	-651.22687	782.59949	-35.13559	-644.30414	-707.16766	36.26171	484.26236	710.25714	46.60502	570.02277	-6.73108	674.05963	-1021.17047	
1803	18.020	-788.64215	-39.11821	-650.99506	783.73145	-33.95793	-643.83801	-706.06769	35.63571	484.56870	711.49542	46.08469	570.40674	-5.86521	675.87030	-1019.78180	
1804	18.030	-787.55884	-38.20693	-650.71655	784.90680	-33.08385	-643.87354	-704.97827	34.98655	484.90665	712.52094	45.25182	570.64862	-4.67056	677.36841	-1018.45575	
1805	18.040	-786.43231	-37.13551	-650.63062	785.80450	-31.86311	-643.38531	-704.02570	34.16056	485.25311	713.62659	44.25473	571.23102	-3.29951	678.92535	-1017.00861	
1806	18.050	-785.26202	-36.01694	-650.44067	787.13544	-30.78016	-643.56708	-702.88544	33.37906	485.55969	714.64990	43.39356	571.43738	-2.53015	680.64307	-1015.74591	
1807	18.060	-784.36090	-34.77188	-650.05603	787.85675	-29.72650	-643.42804	-701.81201	32.67570	485.89005	715.17004	41.75327	572.00104	-1.17771	682.55231	-1014.14288	
1808	18.070	-783.30078	-33.69112	-649.93372	789.10968	-28.45626	-643.10596	-700.72644	31.88651	486.17487	716.34930	40.85186	572.08307	-0.09969	684.40015	-1012.39514	
1809	18.080	-782.10999	-32.54499	-649.83807	790.68451	-27.14463	-642.59729	-699.45135	31.17718	486.63953	717.94879	40.59139	572.26251	1.00212	686.23358	-1011.10388	
1810	18.090	-780.69135	-31.35780	-649.56683	791.51752	-26.03570	-642.52338	-698.28400	30.32071	486.86447	719.23236	39.58952	572.69452	2.16462	688.02570	-1009.57928	
1811	18.100	-779.65704	-29.88391	-649.31909	792.61804	-24.69141	-642.34729	-697.25641	29.45360	487.18747	720.20239	38.72466	573.01605	3.01752	689.91693	-1007.83966	
1812	18.110	-778.52533	-28.75642	-649.13446	793.61151	-23.62902	-642.19012	-696.01556	28.61644	487.38791	721.38379	37.58148	573.45514	4.07609	691.84882	-1006.13080	
1813	18.120	-777.66742	-27.24480	-648.83716	794.83661	-22.18179	-641.84198	-695.06506	27.79770	487.78397	722.21362	36.57683	573.81213	5.45037	693.86554	-1004.34619	
1814	18.130	-776.47095	-25.93385	-648.52655	796.11176	-20.83801	-641.57550	-693.72021	26.93207	488.20163	723.41522	35.45256	574.15979	6.66476	695.88043	-1002.54987	
1815	18.140	-774.70795	-25.11417	-648.66095	797.18286	-19.66314	-641.43146	-692.72919	26.15993	488.66553	724.04266	34.16307	574.55957	7.39267	698.15808	-1000.76801	
1816	18.150	-774.22412	-23.32202	-648.00946	798.08136	-18.13652	-641.03308	-691.25372	24.99031	488.89359	725.16003	33.10379	575.03717	8.61353	700.21783	-999.06030	
1817	18.160	-773.41882	-21.46449	-647.64807	799.52350	-16.71682	-640.88568	-690.28455	24.19816	489.30695	726.28967	31.99448	575.42334	9.85936	702.23389	-996.92786	
1818	18.170	-772.09088	-20.29450	-647.32025	800.68011	-15.44350	-640.34534	-689.20465	23.22722	489.59607	727.35321	31.05572	575.90771	11.06557	704.21704	-994.92120	
1819	18.180	-770.90314	-19.06310	-647.14807	801.51617	-14.03354	-640.16315	-688.14355	22.34263	489.94485	728.58710	29.95172	576.35370	12.02628	706.34796	-993.08356	
1820	18.190	-769.76837	-17.67886	-646.97498	802.89642	-12.54773	-639.99518	-686.85699	21.26178	490.35803	730.18158	28.92574	576.45789	12.94867	708.54169	-991.20746	
1821	18.200	-768.79132	-16.25494	-646.51807	803.75995	-11.27667	-639.87585	-685.91919	20.37986	490.64218	731.46240	27.67328	576.87903	14.09901	710.72870	-989.12506	
1822	18.210	-767.53149	-14.63549	-646.27478	805.04132	-9.59243	-639.43188	-684.76135	19.21504	491.05807	732.46631	26.67278	577.12390	15.46927	713.05585	-986.92786	
